:SAMPLES-PER-SECOND 30
:FULLY-SPECIFIED
:DEGREES
297
root  78.5668 39.0013 -6.52216 174.913 65.2146 173.705
RightUpLeg  -8.9925 5.1545 -6.62102
RightLeg  14.2633 16.1574 1.58928
RightFoot  -6.06471 -0.125371 1.82373
RightToes  -8.14909e-010 0 -3.6325e-017
Spine  8.03088 0.300604 10.7979
Spine1  8.88731 3.27494 -9.18913
HEad  -11.7494 15.128 -11.9697
LeftShoulder1  -0.700022 5.30913 -32.6174
LeftArm  4.22798 6.68756 -40.3755
LeftForeArm  25.7843 -35.283 -6.41423
LeftHand  -0.0104401 5.85877 4.06157
RightShoulder  -1.09725 -6.69473 27.8556
RightArm  10.2981 -10.8044 43.8887
RightForeArm  23.3903 15.2378 3.9555
RightHand  -0.00029596 1.85676 -0.179087
LeftUpLeg  -10.2055 -3.33541 -3.16834
LeftLeg  9.77343 -17.0707 -0.408802
LeftFoot  1.79663 -0.428702 3.62478
LeftToes  1.648e-009 -9.21574e-011 2.55256e-011
298
root  78.8067 39.0602 -6.21014 176.357 61.8729 174.98
RightUpLeg  -8.044 -0.278964 -5.48985
RightLeg  13.3621 18.0271 1.17499
RightFoot  -5.72934 -0.0887416 1.01812
RightToes  -8.14909e-010 0 -3.6325e-017
Spine  8.24941 0.149858 10.128
Spine1  8.38944 2.26911 -6.17926
HEad  -11.05 17.3128 -12.922
LeftShoulder1  -0.778325 5.5134 -32.5654
LeftArm  6.43626 7.06515 -40.7262
LeftForeArm  24.7199 -33.52 -6.01524
LeftHand  -0.0182484 5.94294 2.9605
RightShoulder  -1.01259 -6.44254 27.8893
RightArm  7.76055 -11.865 45.3592
RightForeArm  21.6319 12.7204 4.0148
RightHand  -0.00892446 1.05208 -0.263365
LeftUpLeg  -10.2104 -3.33212 -2.54232
LeftLeg  8.94237 -20.5411 -0.577588
LeftFoot  1.94965 -0.308692 2.54876
LeftToes  1.648e-009 -9.21574e-011 2.55256e-011
299
root  79.1277 39.1349 -5.84713 178.816 57.51 176.446
RightUpLeg  -7.67821 -4.54503 -4.28103
RightLeg  11.902 17.6838 0.487531
RightFoot  -5.19345 -0.0660049 0.566241
RightToes  -8.14909e-010 0 -3.6325e-017
Spine  6.76395 0.0307239 10.4556
Spine1  8.84671 1.58174 -4.44557
HEad  -11.8894 17.5995 -13.003
LeftShoulder1  -0.70839 5.3392 -32.439
LeftArm  6.94208 7.65453 -40.8085
LeftForeArm  23.9066 -32.8163 -5.88774
LeftHand  -0.0233556 5.76312 0.997099
RightShoulder  -1.21166 -6.88633 29.3173
RightArm  5.68938 -12.7586 45.4161
RightForeArm  19.9984 12.551 3.51062
RightHand  0.00483573 1.4021 -0.0375259
LeftUpLeg  -11.1342 -3.21646 -1.63882
LeftLeg  7.97074 -25.1107 -0.780444
LeftFoot  2.26147 -0.176649 1.36994
LeftToes  1.648e-009 -9.21574e-011 2.55256e-011
300
root  79.364 39.1735 -5.56798 179.419 53.6996 176.238
RightUpLeg  -7.54435 -6.72908 -4.3666
RightLeg  11.3929 15.9401 0.596098
RightFoot  -5.07636 -0.0358887 0.0565224
RightToes  -8.14909e-010 0 -3.6325e-017
Spine  6.02738 0.0356848 9.86149
Spine1  8.94262 1.02186 -2.68109
HEad  -12.8594 17.6199 -13.3987
LeftShoulder1  -0.695121 5.29512 -32.6545
LeftArm  6.69739 8.6554 -40.8731
LeftForeArm  21.0299 -31.5574 -5.73941
LeftHand  -0.0320642 3.78893 0.771359
RightShoulder  -1.30991 -7.07591 30.1852
RightArm  6.65706 -12.1427 44.9259
RightForeArm  18.1949 11.8996 3.87497
RightHand  -0.0111986 2.18612 -0.358308
LeftUpLeg  -11.5042 -3.24273 -1.76353
LeftLeg  6.44646 -27.8489 -0.326064
LeftFoot  2.43226 0.0373435 -0.439743
LeftToes  1.648e-009 -9.21574e-011 2.55256e-011
301
root  79.5908 39.2085 -5.34103 179.702 49.9512 175.737
RightUpLeg  -7.28264 -8.01362 -4.7777
RightLeg  10.9342 13.3703 0.759491
RightFoot  -5.20024 -0.00313462 -0.461044
RightToes  -8.14909e-010 0 -3.6325e-017
Spine  4.88615 0.257198 9.22627
Spine1  9.8506 0.72479 -1.05462
HEad  -12.9254 18.8128 -14.6098
LeftShoulder1  -0.606437 5.05849 -32.8518
LeftArm  6.81373 9.40115 -41.1761
LeftForeArm  20.9317 -30.7607 -5.55366
LeftHand  -0.0263662 5.18002 1.22757
RightShoulder  -1.25755 -6.97131 29.7714
RightArm  7.84667 -11.4738 44.8847
RightForeArm  18.0358 12.2851 4.169
RightHand  0.0178995 2.37864 0.0778956
LeftUpLeg  -11.6946 -2.83974 -2.27326
LeftLeg  4.59663 -26.5265 0.535167
LeftFoot  2.10584 0.3152 -2.7809
LeftToes  1.648e-009 -9.21574e-011 2.55256e-011
302
root  79.6845 39.24 -5.14955 -179.487 46.3247 175.821
RightUpLeg  -7.05349 -8.80807 -5.05856
RightLeg  10.0728 10.5467 1.07311
RightFoot  -5.01879 -0.0364312 0.0619185
RightToes  -8.14909e-010 0 -3.6325e-017
Spine  4.94369 0.346678 10.8205
Spine1  8.83466 1.15978 -2.36783
HEad  -12.3347 17.9528 -14.3693
LeftShoulder1  -0.627069 5.11039 -32.8788
LeftArm  8.88225 9.34583 -40.945
LeftForeArm  21.5698 -28.942 -5.0859
LeftHand  -0.0127204 6.4466 2.54917
RightShoulder  -1.2298 -6.88865 29.8311
RightArm  9.85642 -10.7306 44.0941
RightForeArm  18.411 12.3303 4.6841
RightHand  -0.0147545 2.66887 -0.423919
LeftUpLeg  -12.35 -1.62811 -2.48369
LeftLeg  3.34782 -19.9283 0.859153
LeftFoot  2.07772 0.375691 -3.3164
LeftToes  1.648e-009 -9.21574e-011 2.55256e-011
